<svg xmlns="http://www.w3.org/2000/svg" width="17.962" height="35.245" viewBox="0 0 17.962 35.245"><g transform="translate(-139 -5)"><path d="M150.842,40.217c-.175.007-.287.021-.4.021-2.392,0-4.777-.007-7.169.007-.336,0-.427-.091-.427-.427q.011-8.351.007-16.71v-.483H139V16.681h.378c1.049,0,2.1-.007,3.148.007.266,0,.336-.077.336-.336-.014-1.56-.014-3.127,0-4.686a6.881,6.881,0,0,1,.685-3.141,5.973,5.973,0,0,1,3.3-2.854,10.4,10.4,0,0,1,3.658-.65c2.028-.028,4.057-.014,6.085-.021.189,0,.343-.007.343.259q-.01,2.885-.007,5.77a.569.569,0,0,1-.035.133h-.385c-1.259,0-2.518-.007-3.777,0a1.83,1.83,0,0,0-1.686.93,1.346,1.346,0,0,0-.182.657c-.021,1.189,0,2.378-.014,3.567,0,.28.084.357.357.357,1.749-.014,3.5-.007,5.246-.007h.511c-.245,2-.483,3.959-.727,5.938h-5.393C150.842,28.487,150.842,34.335,150.842,40.217Z"/></g></svg>