<svg xmlns="http://www.w3.org/2000/svg" width="398.153" height="35.245" viewBox="0 0 398.153 35.245"><g transform="translate(-1382 -3111)"><g transform="translate(1726.91 3019.105)"><path d="M28.486,127.14c-5.636-.178-10.995-.316-16.354-.523a18.563,18.563,0,0,1-3.454-.493,5.729,5.729,0,0,1-4.323-3.849,20.48,20.48,0,0,1-.977-5.162A99.616,99.616,0,0,1,3.2,104.736,30.9,30.9,0,0,1,3.98,97.8,7.145,7.145,0,0,1,5.9,94.145a6.4,6.4,0,0,1,4.047-1.727c4.224-.207,8.439-.464,12.663-.5,5.685-.059,11.38.02,17.065.128a68.163,68.163,0,0,1,7.373.493,5.738,5.738,0,0,1,4.787,3.711,17.342,17.342,0,0,1,1.086,5.191,98.869,98.869,0,0,1,.178,13.354,28.727,28.727,0,0,1-.859,6.731,6.245,6.245,0,0,1-4.866,4.767,17.926,17.926,0,0,1-3.079.336C38.928,126.814,33.569,126.982,28.486,127.14Zm-5.458-11.222c4.5-2.329,8.952-4.639,13.492-7-4.53-2.369-8.981-4.688-13.492-7.047C23.028,106.581,23.028,111.21,23.028,115.918Z" transform="translate(0 0)"/></g><path d="M36.14,40.9,1.293,54.408c-1.4.629-1.877,1.889-.339,2.572l8.94,2.856L31.509,46.409c1.18-.843,2.389-.618,1.349.309l-18.565,16.9-.583,7.15a1.321,1.321,0,0,0,2.16.56l5.136-4.885,8.8,6.621c2.043,1.216,3.155.431,3.594-1.8L39.167,43.8C39.766,41.058,38.745,39.85,36.14,40.9Z" transform="translate(1585 3070.475)"/><g transform="translate(1504.9 3102.131)"><path d="M44.308,26.486c0,2.471-.05,4.949.014,7.419a9.817,9.817,0,0,1-6.141,9.258,11.106,11.106,0,0,1-4.409.923c-4.778.007-9.563.071-14.341-.021a10.456,10.456,0,0,1-8.683-4.544A8.864,8.864,0,0,1,9.1,34.26V19c0-4.153,2.023-7.057,5.616-8.946a10.791,10.791,0,0,1,5.027-1.171c4.636,0,9.279-.028,13.916.014a10.672,10.672,0,0,1,8.818,4.3,8.884,8.884,0,0,1,1.832,5.524Zm-32.588,0V34.3a6.1,6.1,0,0,0,.873,3.245,7.852,7.852,0,0,0,6.944,3.9c4.764.071,9.535.028,14.306.014a7.761,7.761,0,0,0,3.365-.745,7.1,7.1,0,0,0,4.48-6.865c-.028-5.041-.007-10.082-.007-15.122a6.407,6.407,0,0,0-1.25-3.884,7.937,7.937,0,0,0-6.589-3.323c-4.757-.057-9.514-.021-14.27-.014a8.381,8.381,0,0,0-2.946.561A7.274,7.274,0,0,0,11.7,19.131C11.784,21.587,11.72,24.037,11.72,26.486Z"/><path d="M149.278,149.329a8.165,8.165,0,1,1,8.264-8.172A8.224,8.224,0,0,1,149.278,149.329Zm0-2.627a5.543,5.543,0,1,0-5.659-5.545A5.594,5.594,0,0,0,149.278,146.7Z" transform="translate(-122.535 -115.317)"/><path d="M364.832,98a1.813,1.813,0,1,1-1.732,1.825A1.783,1.783,0,0,1,364.832,98Z" transform="translate(-328.866 -82.803)"/></g><g transform="translate(1661 3111)"><path d="M33.443,16.291A16.445,16.445,0,0,1,9.089,30.555L0,33.443,2.963,24.7A16.119,16.119,0,0,1,.608,16.291a16.418,16.418,0,0,1,32.836,0ZM17.026,2.594a13.765,13.765,0,0,0-13.8,13.7,13.552,13.552,0,0,0,2.629,8.03L4.127,29.408l5.3-1.686a13.817,13.817,0,0,0,21.4-11.43A13.766,13.766,0,0,0,17.026,2.594Zm8.291,17.448c-.1-.166-.369-.266-.771-.466s-2.382-1.166-2.75-1.3-.638-.2-.906.2-1.039,1.3-1.275,1.565-.469.3-.872.1a11.015,11.015,0,0,1-3.236-1.982A12.039,12.039,0,0,1,13.268,15.4c-.234-.4-.025-.615.177-.814.181-.179.4-.466.6-.7a2.676,2.676,0,0,0,.4-.666.728.728,0,0,0-.033-.7c-.1-.2-.906-2.165-1.241-2.964s-.67-.666-.905-.666-.5-.033-.771-.033a1.485,1.485,0,0,0-1.074.5,4.465,4.465,0,0,0-1.408,3.331,7.726,7.726,0,0,0,1.643,4.129c.2.266,2.783,4.429,6.874,6.028s4.092,1.065,4.83,1a4.071,4.071,0,0,0,2.717-1.9A3.329,3.329,0,0,0,25.316,20.043Z"/></g><g transform="translate(1432.7 3037.49)"><path d="M3.359,104.613a17.938,17.938,0,0,0,12.823-3.661A9.094,9.094,0,0,1,7.927,94.8a9.786,9.786,0,0,0,3.873-.153c-4.356-1.356-6.678-4.2-6.992-8.8a9.4,9.4,0,0,0,3.983,1.068,8.922,8.922,0,0,1-3.856-7.628,8.218,8.218,0,0,1,1.187-4.127,25.339,25.339,0,0,0,18.2,9.221c-.042-.322-.068-.576-.1-.839a8.786,8.786,0,0,1,7.1-9.857,8.487,8.487,0,0,1,7.7,2.229,1,1,0,0,0,1.051.263,21.136,21.136,0,0,0,4.89-1.907A9.159,9.159,0,0,1,41.439,79c.381-.068.771-.119,1.153-.195.4-.085.8-.178,1.2-.288.381-.1.754-.22,1.127-.347a7.847,7.847,0,0,1,1.212-.347c-.22.305-.432.627-.67.924a19.759,19.759,0,0,1-3.365,3.314.668.668,0,0,0-.229.475,25.948,25.948,0,0,1-11.594,22.188,23.689,23.689,0,0,1-8.068,3.263,26.647,26.647,0,0,1-8.636.373,23.923,23.923,0,0,1-8.246-2.534c-.686-.347-1.348-.737-2.017-1.11A.633.633,0,0,0,3.359,104.613Z"/></g><g transform="translate(1243 3106)"><path d="M150.842,40.217c-.175.007-.287.021-.4.021-2.392,0-4.777-.007-7.169.007-.336,0-.427-.091-.427-.427q.011-8.351.007-16.71v-.483H139V16.681h.378c1.049,0,2.1-.007,3.148.007.266,0,.336-.077.336-.336-.014-1.56-.014-3.127,0-4.686a6.881,6.881,0,0,1,.685-3.141,5.973,5.973,0,0,1,3.3-2.854,10.4,10.4,0,0,1,3.658-.65c2.028-.028,4.057-.014,6.085-.021.189,0,.343-.007.343.259q-.01,2.885-.007,5.77a.569.569,0,0,1-.035.133h-.385c-1.259,0-2.518-.007-3.777,0a1.83,1.83,0,0,0-1.686.93,1.346,1.346,0,0,0-.182.657c-.021,1.189,0,2.378-.014,3.567,0,.28.084.357.357.357,1.749-.014,3.5-.007,5.246-.007h.511c-.245,2-.483,3.959-.727,5.938h-5.393C150.842,28.487,150.842,34.335,150.842,40.217Z"/></g></g></svg>