<svg xmlns="http://www.w3.org/2000/svg" width="35.225" height="35.245" viewBox="0 0 35.225 35.245"><g transform="translate(-9.1 -8.869)"><path d="M44.308,26.486c0,2.471-.05,4.949.014,7.419a9.817,9.817,0,0,1-6.141,9.258,11.106,11.106,0,0,1-4.409.923c-4.778.007-9.563.071-14.341-.021a10.456,10.456,0,0,1-8.683-4.544A8.864,8.864,0,0,1,9.1,34.26V19c0-4.153,2.023-7.057,5.616-8.946a10.791,10.791,0,0,1,5.027-1.171c4.636,0,9.279-.028,13.916.014a10.672,10.672,0,0,1,8.818,4.3,8.884,8.884,0,0,1,1.832,5.524Zm-32.588,0V34.3a6.1,6.1,0,0,0,.873,3.245,7.852,7.852,0,0,0,6.944,3.9c4.764.071,9.535.028,14.306.014a7.761,7.761,0,0,0,3.365-.745,7.1,7.1,0,0,0,4.48-6.865c-.028-5.041-.007-10.082-.007-15.122a6.407,6.407,0,0,0-1.25-3.884,7.937,7.937,0,0,0-6.589-3.323c-4.757-.057-9.514-.021-14.27-.014a8.381,8.381,0,0,0-2.946.561A7.274,7.274,0,0,0,11.7,19.131C11.784,21.587,11.72,24.037,11.72,26.486Z"/><path d="M149.278,149.329a8.165,8.165,0,1,1,8.264-8.172A8.224,8.224,0,0,1,149.278,149.329Zm0-2.627a5.543,5.543,0,1,0-5.659-5.545A5.594,5.594,0,0,0,149.278,146.7Z" transform="translate(-122.535 -115.317)"/><path d="M364.832,98a1.813,1.813,0,1,1-1.732,1.825A1.783,1.783,0,0,1,364.832,98Z" transform="translate(-328.866 -82.803)"/></g></svg>