<svg xmlns="http://www.w3.org/2000/svg" width="33.443" height="33.443" viewBox="0 0 33.443 33.443"><path d="M33.443,16.291A16.445,16.445,0,0,1,9.089,30.555L0,33.443,2.963,24.7A16.119,16.119,0,0,1,.608,16.291a16.418,16.418,0,0,1,32.836,0ZM17.026,2.594a13.765,13.765,0,0,0-13.8,13.7,13.552,13.552,0,0,0,2.629,8.03L4.127,29.408l5.3-1.686a13.817,13.817,0,0,0,21.4-11.43A13.766,13.766,0,0,0,17.026,2.594Zm8.291,17.448c-.1-.166-.369-.266-.771-.466s-2.382-1.166-2.75-1.3-.638-.2-.906.2-1.039,1.3-1.275,1.565-.469.3-.872.1a11.015,11.015,0,0,1-3.236-1.982A12.039,12.039,0,0,1,13.268,15.4c-.234-.4-.025-.615.177-.814.181-.179.4-.466.6-.7a2.676,2.676,0,0,0,.4-.666.728.728,0,0,0-.033-.7c-.1-.2-.906-2.165-1.241-2.964s-.67-.666-.905-.666-.5-.033-.771-.033a1.485,1.485,0,0,0-1.074.5,4.465,4.465,0,0,0-1.408,3.331,7.726,7.726,0,0,0,1.643,4.129c.2.266,2.783,4.429,6.874,6.028s4.092,1.065,4.83,1a4.071,4.071,0,0,0,2.717-1.9A3.329,3.329,0,0,0,25.316,20.043Z"/></svg>