<svg xmlns="http://www.w3.org/2000/svg" width="42.825" height="35.039" viewBox="0 0 42.825 35.039"><g transform="translate(-3.3 -73.51)"><path d="M3.359,104.613a17.938,17.938,0,0,0,12.823-3.661A9.094,9.094,0,0,1,7.927,94.8a9.786,9.786,0,0,0,3.873-.153c-4.356-1.356-6.678-4.2-6.992-8.8a9.4,9.4,0,0,0,3.983,1.068,8.922,8.922,0,0,1-3.856-7.628,8.218,8.218,0,0,1,1.187-4.127,25.339,25.339,0,0,0,18.2,9.221c-.042-.322-.068-.576-.1-.839a8.786,8.786,0,0,1,7.1-9.857,8.487,8.487,0,0,1,7.7,2.229,1,1,0,0,0,1.051.263,21.136,21.136,0,0,0,4.89-1.907A9.159,9.159,0,0,1,41.439,79c.381-.068.771-.119,1.153-.195.4-.085.8-.178,1.2-.288.381-.1.754-.22,1.127-.347a7.847,7.847,0,0,1,1.212-.347c-.22.305-.432.627-.67.924a19.759,19.759,0,0,1-3.365,3.314.668.668,0,0,0-.229.475,25.948,25.948,0,0,1-11.594,22.188,23.689,23.689,0,0,1-8.068,3.263,26.647,26.647,0,0,1-8.636.373,23.923,23.923,0,0,1-8.246-2.534c-.686-.347-1.348-.737-2.017-1.11A.633.633,0,0,0,3.359,104.613Z"/></g></svg>