<svg xmlns="http://www.w3.org/2000/svg" width="50.153" height="35.245" viewBox="0 0 50.153 35.245"><g transform="translate(-3.09 -91.895)"><path d="M28.486,127.14c-5.636-.178-10.995-.316-16.354-.523a18.563,18.563,0,0,1-3.454-.493,5.729,5.729,0,0,1-4.323-3.849,20.48,20.48,0,0,1-.977-5.162A99.616,99.616,0,0,1,3.2,104.736,30.9,30.9,0,0,1,3.98,97.8,7.145,7.145,0,0,1,5.9,94.145a6.4,6.4,0,0,1,4.047-1.727c4.224-.207,8.439-.464,12.663-.5,5.685-.059,11.38.02,17.065.128a68.163,68.163,0,0,1,7.373.493,5.738,5.738,0,0,1,4.787,3.711,17.342,17.342,0,0,1,1.086,5.191,98.869,98.869,0,0,1,.178,13.354,28.727,28.727,0,0,1-.859,6.731,6.245,6.245,0,0,1-4.866,4.767,17.926,17.926,0,0,1-3.079.336C38.928,126.814,33.569,126.982,28.486,127.14Zm-5.458-11.222c4.5-2.329,8.952-4.639,13.492-7-4.53-2.369-8.981-4.688-13.492-7.047C23.028,106.581,23.028,111.21,23.028,115.918Z" transform="translate(0 0)"/></g></svg>